<mxfile host="Electron" agent="Mozilla/5.0 (Windows NT 10.0; Win64; x64) AppleWebKit/537.36 (KHTML, like Gecko) draw.io/24.7.17 Chrome/128.0.6613.36 Electron/32.0.1 Safari/537.36" version="24.7.17">
  <diagram name="Trang-1" id="snO9o9Szg2wk7SinybUI">
    <mxGraphModel dx="1434" dy="836" grid="1" gridSize="10" guides="1" tooltips="1" connect="1" arrows="1" fold="1" page="1" pageScale="1" pageWidth="827" pageHeight="1169" math="0" shadow="0">
      <root>
        <mxCell id="0" />
        <mxCell id="1" parent="0" />
        <mxCell id="jNn-4ogbPlU4Jh79izcs-1" style="edgeStyle=orthogonalEdgeStyle;rounded=0;orthogonalLoop=1;jettySize=auto;html=1;exitX=0.5;exitY=1;exitDx=0;exitDy=0;entryX=0.5;entryY=0;entryDx=0;entryDy=0;" parent="1" source="jNn-4ogbPlU4Jh79izcs-2" target="jNn-4ogbPlU4Jh79izcs-3" edge="1">
          <mxGeometry relative="1" as="geometry">
            <mxPoint x="405" y="170" as="targetPoint" />
            <Array as="points">
              <mxPoint x="405" y="140" />
              <mxPoint x="406" y="140" />
            </Array>
          </mxGeometry>
        </mxCell>
        <mxCell id="jNn-4ogbPlU4Jh79izcs-2" value="&lt;font style=&quot;font-size: 24px;&quot;&gt;START&lt;/font&gt;" style="ellipse;whiteSpace=wrap;html=1;" parent="1" vertex="1">
          <mxGeometry x="335" y="30" width="140" height="80" as="geometry" />
        </mxCell>
        <mxCell id="jNn-4ogbPlU4Jh79izcs-3" value="&lt;font style=&quot;font-size: 24px;&quot;&gt;INPUT A, B&lt;/font&gt;" style="shape=parallelogram;perimeter=parallelogramPerimeter;whiteSpace=wrap;html=1;fixedSize=1;" parent="1" vertex="1">
          <mxGeometry x="310" y="260" width="190" height="80" as="geometry" />
        </mxCell>
        <mxCell id="jNn-4ogbPlU4Jh79izcs-4" value="" style="endArrow=classic;html=1;rounded=0;" parent="1" edge="1">
          <mxGeometry width="50" height="50" relative="1" as="geometry">
            <mxPoint x="404.5" y="340" as="sourcePoint" />
            <mxPoint x="405" y="450" as="targetPoint" />
          </mxGeometry>
        </mxCell>
        <mxCell id="jNn-4ogbPlU4Jh79izcs-5" value="&lt;span style=&quot;font-size: 24px;&quot;&gt;IF A &amp;lt; B&amp;nbsp;&lt;/span&gt;" style="rhombus;whiteSpace=wrap;html=1;" parent="1" vertex="1">
          <mxGeometry x="280" y="450" width="250" height="150" as="geometry" />
        </mxCell>
        <mxCell id="jNn-4ogbPlU4Jh79izcs-6" value="&lt;font style=&quot;font-size: 24px;&quot;&gt;PRINT A&lt;/font&gt;" style="shape=parallelogram;perimeter=parallelogramPerimeter;whiteSpace=wrap;html=1;fixedSize=1;" parent="1" vertex="1">
          <mxGeometry x="60" y="660" width="230" height="110" as="geometry" />
        </mxCell>
        <mxCell id="jNn-4ogbPlU4Jh79izcs-7" value="&lt;font style=&quot;font-size: 24px;&quot;&gt;PRINT B&lt;/font&gt;" style="shape=parallelogram;perimeter=parallelogramPerimeter;whiteSpace=wrap;html=1;fixedSize=1;" parent="1" vertex="1">
          <mxGeometry x="500" y="660" width="230" height="110" as="geometry" />
        </mxCell>
        <mxCell id="jNn-4ogbPlU4Jh79izcs-8" value="" style="endArrow=classic;html=1;rounded=0;entryX=0.641;entryY=0.011;entryDx=0;entryDy=0;entryPerimeter=0;" parent="1" source="jNn-4ogbPlU4Jh79izcs-5" target="jNn-4ogbPlU4Jh79izcs-6" edge="1">
          <mxGeometry width="50" height="50" relative="1" as="geometry">
            <mxPoint x="290" y="600" as="sourcePoint" />
            <mxPoint x="340" y="550" as="targetPoint" />
          </mxGeometry>
        </mxCell>
        <mxCell id="jNn-4ogbPlU4Jh79izcs-9" value="" style="endArrow=classic;html=1;rounded=0;entryX=0.582;entryY=-0.033;entryDx=0;entryDy=0;entryPerimeter=0;exitX=1;exitY=1;exitDx=0;exitDy=0;" parent="1" source="jNn-4ogbPlU4Jh79izcs-5" target="jNn-4ogbPlU4Jh79izcs-7" edge="1">
          <mxGeometry width="50" height="50" relative="1" as="geometry">
            <mxPoint x="716" y="550" as="sourcePoint" />
            <mxPoint x="530" y="673" as="targetPoint" />
          </mxGeometry>
        </mxCell>
        <mxCell id="jNn-4ogbPlU4Jh79izcs-10" value="&lt;font style=&quot;font-size: 24px;&quot;&gt;TRUE&lt;/font&gt;" style="text;html=1;align=center;verticalAlign=middle;whiteSpace=wrap;rounded=0;" parent="1" vertex="1">
          <mxGeometry x="200" y="585" width="60" height="30" as="geometry" />
        </mxCell>
        <mxCell id="jNn-4ogbPlU4Jh79izcs-11" value="&lt;font style=&quot;font-size: 24px;&quot;&gt;FALSE&lt;/font&gt;" style="text;html=1;align=center;verticalAlign=middle;whiteSpace=wrap;rounded=0;" parent="1" vertex="1">
          <mxGeometry x="570" y="585" width="60" height="30" as="geometry" />
        </mxCell>
        <mxCell id="jNn-4ogbPlU4Jh79izcs-12" value="&lt;font style=&quot;font-size: 24px;&quot;&gt;END&lt;/font&gt;" style="ellipse;whiteSpace=wrap;html=1;" parent="1" vertex="1">
          <mxGeometry x="335" y="790" width="140" height="80" as="geometry" />
        </mxCell>
        <mxCell id="jNn-4ogbPlU4Jh79izcs-13" value="" style="endArrow=classic;html=1;rounded=0;entryX=0.036;entryY=0.607;entryDx=0;entryDy=0;entryPerimeter=0;" parent="1" target="jNn-4ogbPlU4Jh79izcs-12" edge="1">
          <mxGeometry width="50" height="50" relative="1" as="geometry">
            <mxPoint x="170" y="770" as="sourcePoint" />
            <mxPoint x="330" y="840" as="targetPoint" />
            <Array as="points">
              <mxPoint x="170" y="839" />
            </Array>
          </mxGeometry>
        </mxCell>
        <mxCell id="jNn-4ogbPlU4Jh79izcs-14" value="" style="endArrow=classic;html=1;rounded=0;entryX=0.964;entryY=0.613;entryDx=0;entryDy=0;entryPerimeter=0;" parent="1" target="jNn-4ogbPlU4Jh79izcs-12" edge="1">
          <mxGeometry width="50" height="50" relative="1" as="geometry">
            <mxPoint x="630" y="770" as="sourcePoint" />
            <mxPoint x="480" y="840" as="targetPoint" />
            <Array as="points">
              <mxPoint x="630" y="839" />
            </Array>
          </mxGeometry>
        </mxCell>
      </root>
    </mxGraphModel>
  </diagram>
</mxfile>
